<?xml version="1.0" encoding="UTF-8" standalone="no"?>
<!-- Created with Inkscape (http://www.inkscape.org/) -->

<svg
   width="3.8515761cm"
   height="4.4087853cm"
   viewBox="0 0 38.51576 44.087853"
   version="1.1"
   id="svg1"
   xml:space="preserve"
   sodipodi:docname="E-code isotipo Azul negro.svg"
   inkscape:export-filename="E-code isotipo Negro.svg"
   inkscape:export-xdpi="96"
   inkscape:export-ydpi="96"
   xmlns:inkscape="http://www.inkscape.org/namespaces/inkscape"
   xmlns:sodipodi="http://sodipodi.sourceforge.net/DTD/sodipodi-0.dtd"
   xmlns="http://www.w3.org/2000/svg"
   xmlns:svg="http://www.w3.org/2000/svg"><sodipodi:namedview
     id="namedview1"
     pagecolor="#ffffff"
     bordercolor="#000000"
     borderopacity="0.25"
     inkscape:showpageshadow="2"
     inkscape:pageopacity="0.0"
     inkscape:pagecheckerboard="0"
     inkscape:deskcolor="#d1d1d1"
     inkscape:document-units="mm"
     showgrid="true"
     inkscape:export-bgcolor="#00000000"><inkscape:grid
       id="grid1341"
       units="mm"
       originx="-39.670407"
       originy="-0.015144562"
       spacingx="0.99999997"
       spacingy="0.99999999"
       empcolor="#0099e5"
       empopacity="0.30196078"
       color="#0099e5"
       opacity="0.14901961"
       empspacing="5"
       dotted="false"
       gridanglex="30"
       gridanglez="30"
       visible="true" /></sodipodi:namedview><defs
     id="defs1" /><g
     id="layer-MC0"
     inkscape:groupmode="layer"
     inkscape:label="Layer 1"
     transform="matrix(0.26458333,0,0,0.26458333,69.503874,-0.00400699)"><path
       id="path921-7"
       style="fill:#ffffff;fill-opacity:1;stroke:none;stroke-width:1.42468;stroke-linecap:round;stroke-linejoin:bevel;stroke-miterlimit:9"
       d="m -245.67413,92.16901 9.7e-4,0.0014 2.69079,10.00599 6.39275,6.20694 3.70043,-3.80046 3.70044,-3.80048 3.69863,-3.798655 9.7e-4,-0.0014 3.69865,-3.798664 3.70043,-3.800464 3.70043,-3.80047 3.69866,-3.798658 9.5e-4,-0.0014 3.69864,-3.798658 3.70044,-3.80047 3.70044,-3.80047 3.69863,-3.798658 9.6e-4,-0.0014 3.69864,-3.798658 3.70037,-3.800533 -9.7e-4,-0.0014 -2.69079,-10.005977 -2.69257,-10.004187 -9.6e-4,-0.0014 -3.69864,3.798665 -3.70043,3.800463 -3.70043,3.800456 -3.69864,3.798665 -9.6e-4,0.0014 -3.69866,3.798658 -3.70043,3.80047 -3.70035,3.800534 -3.69865,3.798657 -9.6e-4,0.0014 -3.69864,3.798665 -3.70043,3.800463 -3.70044,3.800471 -3.69865,3.798658 -9.6e-4,0.0014 -3.69864,3.798665 z m 8.07543,30.02094 2.69408,10.00564 3.70043,-3.80046 3.69866,-3.79866 3.70042,-3.80046 3.70043,-3.80046 3.70043,-3.80047 3.69865,-3.79867 9.6e-4,-0.001 3.69865,-3.79866 3.70043,-3.80047 10.09158,2.40501 9.6e-4,0.001 -9.6e-4,10e-4 -7.39728,7.59732 -9.6e-4,10e-4 -7.399,7.59919 -7.40079,7.60099 2.69081,10.00598 10.0931,2.40651 7.4008,-7.601 7.399,-7.59918 7.40079,-7.60101 2.69079,10.00598 -3.70044,3.80048 -3.69864,3.79866 -9.7e-4,0.001 -3.69865,3.79867 -3.70044,3.80046 -3.70042,3.80047 -3.70044,3.80046 -3.69863,3.79866 -3.70043,3.80046 10.09134,2.40832 -9.5e-4,-0.004 0.003,0.003 7.399,-7.59919 7.40079,-7.601 7.39899,-7.59919 7.4008,-7.601 -2.69409,-10.00566 9.6e-4,-0.001 -2.69256,-10.00417 7.4008,-7.60101 -6.39276,-6.206947 -6.39117,-6.205514 -7.40059,7.600784 -9.5e-4,-0.0014 -10.08982,-2.406821 -9.6e-4,0.0014 -10.09134,-2.408305 -7.4008,7.601004 -7.39899,7.599199 -7.40079,7.60099 -7.39899,7.59919 0.003,0.003 z m 52.14676,35.84491 6.39117,6.20551 9.6e-4,10e-4 10.0916,2.40503 3.70044,-3.80048 3.70044,-3.80047 3.69863,-3.79865 3.70043,-3.80047 3.70043,-3.80046 3.69865,-3.79866 9.6e-4,-10e-4 3.69865,-3.79867 3.70044,-3.80046 3.70042,-3.80046 3.70043,-3.80047 3.69866,-3.79867 3.70043,-3.80046 3.70042,-3.80045 3.69864,-3.79867 -10.08984,-2.40683 -9.6e-4,-0.001 -0.002,0.002 -10.08982,-2.40681 -3.70041,3.80046 -3.69867,3.79866 -9.5e-4,0.001 -3.69865,3.79866 -3.70044,3.80047 -3.70043,3.80046 -3.70041,3.80046 -3.69865,3.79866 -3.70041,3.80046 -3.70046,3.80047 -3.69864,3.79867 -9.7e-4,0.001 -3.69863,3.79866 -3.70045,3.80047 z"
       inkscape:export-filename="..\PDF\E-code isotipo Blanco.pdf"
       inkscape:export-xdpi="96"
       inkscape:export-ydpi="96" /><path
       id="path1276-5"
       style="fill:#ffffff;fill-opacity:1;stroke:none;stroke-width:1.4087;stroke-linecap:round;stroke-linejoin:bevel;stroke-miterlimit:9"
       d="m -117.12043,75.497863 -12.12092,-12.57929 h -0.002 l -12.12091,-12.58085 h -0.002 l -0.002,0.002 v -0.002 -0.002 l -12.11941,-12.577736 -0.003,0.002 v -0.002 -0.002 l -12.11941,-12.579301 -0.003,0.002 v -0.002 -0.002 l -12.1179,-12.57773 -0.003,-2e-6 -0.003,0.002 v -0.002 -0.006 l -12.11631,-12.57580946 -0.007,0.006 -12.1329,12.55746346 9.7e-4,0.001 -0.005,-3e-6 -0.003,0.002 -12.13291,12.560594 -0.007,0.006 -12.13293,12.559034 -0.007,0.006 -12.13292,12.55747 -0.008,0.008 -12.13141,12.55591 -0.008,0.008 -12.13142,12.55749 12.11492,12.57305 0.008,0.008 12.13142,-12.55593 v -0.008 l 1e-5,-0.0101 0.008,0.0101 12.13292,-12.55905 1e-5,-0.006 v -0.006 l 0.007,0.006 12.13291,-12.55748 1e-5,-0.006 v -0.006 l 0.007,0.006 12.1329,-12.559026 1e-5,-0.005 v -0.005 l 0.005,0.005 9.7e-4,1e-6 12.13288,-12.559045 1e-5,-0.006 v -0.006 l 0.006,0.006 12.1164,12.577739 0.005,0.005 12.11942,12.57771 0.003,0.002 12.11944,12.57774 0.003,0.002 12.11942,12.57774 0.003,0.002 v 0.001 l 12.1209,12.5793 v 0.001 l 0.002,10e-6 12.13748,-12.56371 z"
       inkscape:export-filename="E-code isotipo Negro 1.svg"
       inkscape:export-xdpi="96"
       inkscape:export-ydpi="96" /></g></svg>
